<svg width="70" height="70" viewBox="0 0 70 70" fill="none" xmlns="http://www.w3.org/2000/svg">
<circle cx="35.4" cy="35.4" r="33.5" fill="black" stroke="black" stroke-width="2"/>
<circle cx="34.9" cy="41.9" r="8.5" fill="white" stroke="white" stroke-width="3"/>
<path d="M10.829 29.996C10.86 29.004 10.674 28.818 9.68201 28.849H8.96901C7.97701 28.818 7.79101 29.004 7.82201 29.996V47.852C7.79101 48.813 8.00801 49.03 8.96901 48.999H9.68201C10.643 49.03 10.86 48.813 10.829 47.852V40.443C12.1 41.745 13.278 42.303 14.921 42.303C18.424 42.303 21.059 39.358 21.059 35.452C21.059 31.453 18.424 28.508 14.859 28.508C13.278 28.508 12.1 29.035 10.829 30.275V29.996ZM14.363 31.205C16.44 31.205 17.99 32.972 17.99 35.328C17.99 37.808 16.471 39.606 14.394 39.606C12.162 39.606 10.643 37.901 10.643 35.421C10.643 32.91 12.131 31.205 14.363 31.205ZM58.9495 40.753C58.9185 41.745 59.1045 41.931 60.0965 41.9H60.8095C61.8015 41.931 61.9875 41.745 61.9565 40.753V20.417C61.9875 19.456 61.8015 19.239 60.8095 19.27H60.0965C59.1045 19.239 58.9185 19.456 58.9495 20.417V30.368C57.6475 29.035 56.5005 28.508 54.8575 28.508C51.3545 28.508 48.7195 31.453 48.7195 35.359C48.7195 39.358 51.3545 42.303 54.9195 42.303C56.5005 42.303 57.6785 41.776 58.9495 40.536V40.753ZM55.3845 31.205C57.6165 31.205 59.1355 32.91 59.1355 35.39C59.1355 37.901 57.6165 39.606 55.4155 39.606C53.3385 39.606 51.7885 37.839 51.7885 35.483C51.7885 32.972 53.2765 31.205 55.3845 31.205Z" fill="white"/>
<path d="M22.4 42.4C32.4 46.4 36.9 46.4 46.9 42.4" stroke="black" stroke-width="2.5"/>
</svg>
